<svg width="152" height="40" viewBox="0 0 152 40" fill="none" xmlns="http://www.w3.org/2000/svg">
<path d="M11.3409 8.72727H16.2045V24.9545C16.2045 26.4545 15.8674 27.7576 15.1932 28.8636C14.5265 29.9697 13.5985 30.822 12.4091 31.4205C11.2197 32.0189 9.83712 32.3182 8.26136 32.3182C6.85985 32.3182 5.58712 32.072 4.44318 31.5795C3.30682 31.0795 2.4053 30.322 1.73864 29.3068C1.07197 28.2841 0.742424 27 0.75 25.4545H5.64773C5.66288 26.0682 5.78788 26.5947 6.02273 27.0341C6.26515 27.4659 6.5947 27.7992 7.01136 28.0341C7.43561 28.2614 7.93561 28.375 8.51136 28.375C9.11742 28.375 9.62879 28.2462 10.0455 27.9886C10.4697 27.7235 10.7917 27.3371 11.0114 26.8295C11.2311 26.322 11.3409 25.697 11.3409 24.9545V8.72727ZM24.2841 32H19.0114L27.0455 8.72727H33.3864L41.4091 32H36.1364L30.3068 14.0455H30.125L24.2841 32ZM23.9545 22.8523H36.4091V26.6932H23.9545V22.8523ZM63.6761 8.72727V32H59.4261L49.3011 17.3523H49.1307V32H44.2102V8.72727H48.5284L58.5739 23.3636H58.7784V8.72727H63.6761ZM71.7528 32H66.4801L74.5142 8.72727H80.8551L88.8778 32H83.6051L77.7756 14.0455H77.5938L71.7528 32ZM71.4233 22.8523H83.8778V26.6932H71.4233V22.8523ZM91.679 32V8.72727H96.5994V27.9432H106.577V32H91.679ZM105.503 8.72727H111.014L116.321 18.75H116.548L121.855 8.72727H127.366L118.878 23.7727V32H113.991V23.7727L105.503 8.72727ZM137.432 23.9091H141.614L143.716 26.6136L145.784 29.0227L149.682 33.9091H145.091L142.409 30.6136L141.034 28.6591L137.432 23.9091ZM150.034 20.3636C150.034 22.9015 149.553 25.0606 148.591 26.8409C147.636 28.6212 146.333 29.9811 144.682 30.9205C143.038 31.8523 141.189 32.3182 139.136 32.3182C137.068 32.3182 135.212 31.8485 133.568 30.9091C131.924 29.9697 130.625 28.6098 129.67 26.8295C128.716 25.0492 128.239 22.8939 128.239 20.3636C128.239 17.8258 128.716 15.6667 129.67 13.8864C130.625 12.1061 131.924 10.75 133.568 9.81818C135.212 8.87879 137.068 8.40909 139.136 8.40909C141.189 8.40909 143.038 8.87879 144.682 9.81818C146.333 10.75 147.636 12.1061 148.591 13.8864C149.553 15.6667 150.034 17.8258 150.034 20.3636ZM145.045 20.3636C145.045 18.7197 144.799 17.3333 144.307 16.2045C143.822 15.0758 143.136 14.2197 142.25 13.6364C141.364 13.053 140.326 12.7614 139.136 12.7614C137.947 12.7614 136.909 13.053 136.023 13.6364C135.136 14.2197 134.447 15.0758 133.955 16.2045C133.47 17.3333 133.227 18.7197 133.227 20.3636C133.227 22.0076 133.47 23.3939 133.955 24.5227C134.447 25.6515 135.136 26.5076 136.023 27.0909C136.909 27.6742 137.947 27.9659 139.136 27.9659C140.326 27.9659 141.364 27.6742 142.25 27.0909C143.136 26.5076 143.822 25.6515 144.307 24.5227C144.799 23.3939 145.045 22.0076 145.045 20.3636Z" fill="#C1121F"/>
</svg>
